# xmcd
# 
# Track frame offsets:
#     150
#     16112
#     27872
#     46360
#     71917
#     88312
#     111982
#     125370
#     141340
#     156112
#     191785
# 
# Disc length: 4440
# 
# Revision: 0
# Processed by: cddbd v1.5.2PL0 Copyright (c) Steve Scherf et al.
# Submitted via: fre:ac v1.0.27
# 
DISCID=9c11560b
DTITLE=Charlie Musselwhite - Delta Hardware
DYEAR=2006
DGENRE=Blues
TTITLE0=Church Is Out
TTITLE1=One Of These Mornings
TTITLE2=Sundown
TTITLE3=Black Water
TTITLE4=Clarksdale Boogie
TTITLE5=Just A Feeling
TTITLE6=Gone Too Long
TTITLE7=Invisible Ones
TTITLE8=Town to Town
TTITLE9=Blues For Yesterday
TTITLE10=Data track
EXTD=
EXTT0=
EXTT1=
EXTT2=
EXTT3=
EXTT4=
EXTT5=
EXTT6=
EXTT7=
EXTT8=
EXTT9=
EXTT10=
PLAYORDER=
